/* XPM */
static char * knockdown2_xpm[] = {
"20 19 2 1",
" 	c None",
".	c #000000",
"                    ",
"    ...             ",
"   ....             ",
"   ....             ",
"    ...             ",
"                    ",
"                    ",
"      ...           ",
"     ....           ",
"    .....           ",
"    .....           ",
"   .......          ",
"   .......          ",
"  ........  ....    ",
"  ...............   ",
" ...  ............. ",
" ...  ............. ",
" ..             ... ",
" ..                 "};
