/* XPM */
static char * swing_xpm[] = {
"30 23 3 1",
" 	c None",
".	c #0000FF",
"+	c #FF0000",
"      ..                      ",
"    ....                      ",
"    ....                      ",
"   .....                      ",
" ..........................   ",
" ..........................   ",
"...........................   ",
"...........................   ",
" ..........................   ",
"  ......                      ",
"   .....              +++     ",
"    ....              ++++    ",
"     ...              +++++   ",
"                      ++++++  ",
"   ++++++++++++++++++++++++++ ",
"   +++++++++++++++++++++++++++",
"   +++++++++++++++++++++++++++",
"   ++++++++++++++++++++++++++ ",
"   ++++++++++++++++++++++++++ ",
"                      +++++   ",
"                      ++++    ",
"                      ++++    ",
"                      ++      "};
