/* XPM */
static char * foul_xpm[] = {
"30 23 34 1",
" 	c None",
".	c #FF0000",
"+	c #161616",
"@	c #0A0A0A",
"#	c #040303",
"$	c #040404",
"%	c #0B0B0B",
"&	c #010101",
"*	c #000000",
"=	c #101010",
"-	c #0D0D0D",
";	c #0F0F0F",
">	c #0C0C0C",
",	c #030203",
"'	c #1D1D1D",
")	c #0F0E0E",
"!	c #050505",
"~	c #131313",
"{	c #111010",
"]	c #020202",
"^	c #0E0D0D",
"/	c #0E0E0E",
"(	c #121112",
"_	c #090909",
":	c #020102",
"<	c #0B0A0B",
"[	c #090809",
"}	c #111111",
"|	c #080808",
"1	c #060606",
"2	c #070707",
"3	c #151515",
"4	c #030303",
"5	c #121212",
"                              ",
"    ..                        ",
"   ...            +@#$%       ",
"    ..           +&****%      ",
"    ..           =&*****-     ",
"... ..           ;&*****-     ",
"... ..           >&*****;     ",
"    ..           ,******;     ",
"    ..   '       )*****!      ",
"   ....   ~{      ]*****!$*   ",
"          ^*/     (_!******** ",
"          %*]       >&******] ",
"          /**/    =]&*******: ",
"           <**_  +]**********[",
"            %**<}]***********|",
"             /*&1!***********|",
"              >**2_]*********-",
"               !**1/2********|",
"               3]**4-%$******_",
"                ~]**&14*****& ",
"                 _]*********1 ",
"                  5|]*******| ",
"                   }%4******2 "};
